<svg width="28" height="29" viewBox="0 0 28 29" fill="none" xmlns="http://www.w3.org/2000/svg">
<path d="M14.0002 26.1757H4.36287C3.63259 26.1757 2.93222 25.8856 2.41583 25.3692C1.89945 24.8528 1.60934 24.1524 1.60934 23.4222V6.90098C1.60934 6.1707 1.89945 5.47033 2.41583 4.95394C2.93222 4.43755 3.63259 4.14745 4.36287 4.14745H20.8841C21.6143 4.14745 22.3147 4.43755 22.8311 4.95394C23.3475 5.47033 23.6376 6.1707 23.6376 6.90098V15.85M18.1305 1.39392V6.90098M7.1164 1.39392V6.90098M1.60934 12.408H23.6376M26.3911 27.5525L19.5073 20.6686M19.5073 27.5525L26.3911 20.6686" stroke="#00C29F" stroke-width="2" stroke-linecap="round" stroke-linejoin="round"/>
</svg>
