<svg width="26" height="27" viewBox="0 0 26 27" fill="none" xmlns="http://www.w3.org/2000/svg">
<path d="M24.9998 15.3193L17.3936 25.4732L12.3167 21.6701" stroke="#00C29F" stroke-width="2" stroke-linecap="round" stroke-linejoin="round"/>
<path d="M9.30769 9.78084C11.6018 9.78084 13.4615 7.9211 13.4615 5.62699C13.4615 3.33288 11.6018 1.47314 9.30769 1.47314C7.01358 1.47314 5.15384 3.33288 5.15384 5.62699C5.15384 7.9211 7.01358 9.78084 9.30769 9.78084Z" stroke="#00C29F" stroke-width="2" stroke-linecap="round" stroke-linejoin="round"/>
<path d="M5.61538 23.627H1V20.8578C1.00144 19.2157 1.48946 17.6109 2.40242 16.2461C3.31538 14.8812 4.61233 13.8175 6.12946 13.1894C7.64659 12.5612 9.31586 12.3967 10.9264 12.7166C12.537 13.0366 14.0166 13.8266 15.1785 14.987" stroke="#00C29F" stroke-width="2" stroke-linecap="round" stroke-linejoin="round"/>
</svg>
