<svg width="28" height="25" viewBox="0 0 28 25" fill="none" xmlns="http://www.w3.org/2000/svg">
<path d="M3.25 0.473145C2.38805 0.473145 1.5614 0.815554 0.951903 1.42505C0.34241 2.03454 0 2.86119 0 3.72314V19.9731C0 21.1666 0.474106 22.3112 1.31802 23.1551C2.16193 23.999 3.30653 24.4731 4.5 24.4731H9.5C10.6935 24.4731 11.8381 23.999 12.682 23.1551C13.5259 22.3112 14 21.1666 14 19.9731V8.47314H26V23.4731C26 23.7384 26.1054 23.9927 26.2929 24.1803C26.4804 24.3678 26.7348 24.4731 27 24.4731C27.2652 24.4731 27.5196 24.3678 27.7071 24.1803C27.8946 23.9927 28 23.7384 28 23.4731V3.72314C28 2.86119 27.6576 2.03454 27.0481 1.42505C26.4386 0.815554 25.612 0.473145 24.75 0.473145H3.25ZM2 8.47314H12V19.9731C12 20.6362 11.7366 21.2721 11.2678 21.7409C10.7989 22.2098 10.163 22.4731 9.5 22.4731H4.5C3.83696 22.4731 3.20107 22.2098 2.73223 21.7409C2.26339 21.2721 2 20.6362 2 19.9731V8.47314ZM2 6.47314V3.72314C2 3.03314 2.56 2.47314 3.25 2.47314H24.75C25.44 2.47314 26 3.03314 26 3.72314V6.47314H2ZM5 11.4731C4.73478 11.4731 4.48043 11.5785 4.29289 11.766C4.10536 11.9536 4 12.2079 4 12.4731C4 12.7384 4.10536 12.9927 4.29289 13.1803C4.48043 13.3678 4.73478 13.4731 5 13.4731H9C9.26522 13.4731 9.51957 13.3678 9.70711 13.1803C9.89464 12.9927 10 12.7384 10 12.4731C10 12.2079 9.89464 11.9536 9.70711 11.766C9.51957 11.5785 9.26522 11.4731 9 11.4731H5Z" fill="#00C29F"/>
</svg>
